<svg width="574" height="100" viewBox="0 0 574 100" fill="none" xmlns="http://www.w3.org/2000/svg">
<path d="M144 4.02086e-05L15 0H0V45.8346L19.2708 45.8346C20.3753 45.8346 21.2708 46.73 21.2708 47.8346V100H74.8768V79.2575C74.8768 78.7694 75.0552 78.2982 75.3786 77.9326L97.5 52.9179H67C65.8954 52.9179 65 52.0225 65 50.9179V47.8346C65 46.73 65.8954 45.8346 67 45.8346H103.669L144 4.02086e-05Z" fill="white"/>
<path fillRule="evenodd" clipRule="evenodd" d="M166 7.62939e-06C158.764 7.62939e-06 149 0 149 0L116 37.5C116 37.5 116 44.9816 116 50C116 82.1 133.9 100 166 100H178C210.1 100 228 82.1 228 50C228 33.007 228 7.62939e-06 228 7.62939e-06C228 7.62939e-06 193.107 7.62939e-06 178 7.62939e-06H166ZM170.393 36C161.795 36 157 40.833 157 49.5C157 58.167 161.795 63 170.393 63H173.607C182.205 63 187 58.167 187 49.5C187 40.833 182.205 36 173.607 36H170.393Z" fill="white"/>
<path fillRule="evenodd" clipRule="evenodd" d="M342 41C342 12.5 317.059 0 292.554 0H232V100L281.554 100V92.4483C281.554 90.5845 283.879 89.7338 285.082 91.1574L292.554 100L342 100L324.381 77.7566C335.04 70.9843 342 59.6195 342 41ZM299.213 46.4984C297.999 47.691 296.326 48.4029 294.549 48.4826H283.01C281.905 48.4826 281.01 47.5872 281.01 46.4826V38C281.01 36.8954 281.905 36 283.01 36H294.549C296.286 36.0378 297.938 36.6968 299.152 37.836C300.367 38.9753 301.046 40.5044 301.045 42.0966C301.084 43.7265 300.426 45.3058 299.213 46.4984Z" fill="white"/>
<path d="M387 50.0177C387 40.5 390.5 36 402.5 36C412 36 414 39 417.5 44.5L449.5 18.5C442 8 427.5 0 401 0C370.5 0 363.5 8 357 15C350.5 22 346 29.5 346 51C346 69.5 353.5 80.5 353.5 80.5C367.985 99.9796 384.909 99.9879 409.355 100L409.432 100C423.5 99.5 430.5 97.5 441 90.5L448.5 100H458V50.0177H409.5L415 57.5C412.5 61 410.5 63 402.5 63C393.5 63 387 60.5 387 50.0177Z" fill="white"/>
<path d="M574 0H462V99.9999L574 99.9999V67.4589L519.809 67.4589C518.705 67.4589 517.809 66.5634 517.809 65.4589V64.0651C517.809 62.9606 518.705 62.0651 519.809 62.0651L544.5 62.0651V36.8729L519.809 36.8729C518.705 36.8729 517.809 35.9775 517.809 34.8729V33.7896C517.809 32.685 518.705 31.7896 519.809 31.7896L574 31.7896V0Z" fill="white"/>
</svg>
