<svg width="100%" viewBox="0 0 1920 556" fill="none" xmlns="http://www.w3.org/2000/svg">
<g id="neon-forge">
<g id="neon">
<path id="n" d="M162.881 242.56C160.554 239.529 155.708 241.174 155.708 244.996L155.708 268.804C155.708 271.013 153.917 272.804 151.708 272.804L4.00017 272.804C1.79096 272.804 7.7126e-05 271.013 0.000172263 268.804L0.0115714 4.10138C0.0116665 1.89231 1.8025 0.101562 4.01157 0.101562H124.182C125.423 0.101562 126.593 0.677003 127.35 1.65936L148.889 29.5991C151.22 32.6223 156.057 30.9741 156.057 27.1569V4.10156C156.057 1.89242 157.848 0.101562 160.057 0.101562H307.66C309.869 0.101562 311.66 1.89242 311.66 4.10156V268.804C311.66 271.013 309.869 272.804 307.66 272.804L188.072 272.804C186.829 272.804 185.656 272.226 184.899 271.24L162.881 242.56Z" fill="currentColor"/>
<path id="e" d="M629.32 0H325.66C323.451 0 321.66 1.79086 321.66 4V268.705C321.66 270.913 323.449 272.704 325.657 272.705L629.317 272.902C631.527 272.904 633.32 271.113 633.32 268.902V188.159C633.32 185.952 631.533 184.162 629.326 184.159L494.179 183.968C491.972 183.965 490.184 182.175 490.184 179.968V173.253C490.184 171.044 491.975 169.253 494.184 169.253L566.782 169.253C568.991 169.253 570.782 167.462 570.782 165.253V104.553C570.782 102.344 568.991 100.553 566.782 100.553L494.184 100.553C491.975 100.553 490.184 98.7626 490.184 96.5534V90.6911C490.184 88.482 491.975 86.6911 494.184 86.6911L629.32 86.6911C631.529 86.6911 633.32 84.9003 633.32 82.6911V4C633.32 1.79086 631.529 0 629.32 0Z" fill="currentColor"/>
<path id="o" fillRule="evenodd" clipRule="evenodd" d="M954.98 4.10156C954.98 1.89242 953.189 0.101562 950.98 0.101562H647.32C645.111 0.101562 643.32 1.89242 643.32 4.10156V268.804C643.32 271.013 645.111 272.804 647.32 272.804H950.98C953.189 272.804 954.98 271.013 954.98 268.804V4.10156ZM834.456 109.56C834.456 107.351 832.666 105.56 830.456 105.56H767.843C765.634 105.56 763.843 107.351 763.843 109.56V163.346C763.843 165.556 765.634 167.346 767.843 167.346H830.456C832.666 167.346 834.456 165.556 834.456 163.346V109.56Z" fill="currentColor"/>
<path id="n_2" d="M1127.86 242.56C1125.53 239.529 1120.69 241.174 1120.69 244.996L1120.69 268.804C1120.69 271.013 1118.9 272.804 1116.69 272.804L968.98 272.804C966.771 272.804 964.98 271.013 964.98 268.804L964.992 4.10138C964.992 1.89231 966.782 0.101562 968.992 0.101562H1089.16C1090.4 0.101562 1091.57 0.677003 1092.33 1.65936L1113.87 29.5991C1116.2 32.6223 1121.04 30.9741 1121.04 27.1569V4.10156C1121.04 1.89242 1122.83 0.101562 1125.04 0.101562H1272.64C1274.85 0.101562 1276.64 1.89242 1276.64 4.10156V268.804C1276.64 271.013 1274.85 272.804 1272.64 272.804L1153.05 272.804C1151.81 272.804 1150.64 272.226 1149.88 271.24L1127.86 242.56Z" fill="currentColor"/>
</g>
<g id="forge">
<path id="f" d="M307.66 282.906L34.8905 282.906H4C1.79086 282.906 0 284.697 0 286.906V403.898C0 406.108 1.79086 407.898 4 407.898L45.4766 407.898C47.6857 407.898 49.4766 409.689 49.4766 411.898V551.609C49.4766 553.818 51.2674 555.609 53.4766 555.609H149.205C150.457 555.609 151.637 555.022 152.393 554.025L243.621 433.631C245.617 430.996 243.738 427.215 240.433 427.215H155.192C152.983 427.215 151.192 425.424 151.192 423.215V411.898C151.192 409.689 152.983 407.898 155.192 407.898H307.66C309.869 407.898 311.66 406.108 311.66 403.898V286.906C311.66 284.697 309.869 282.906 307.66 282.906Z" fill="currentColor"/>
<path id="o_2" fillRule="evenodd" clipRule="evenodd" d="M633.32 286.906C633.32 284.697 631.529 282.906 629.32 282.906H325.66C323.451 282.906 321.66 284.697 321.66 286.906V551.609C321.66 553.818 323.451 555.609 325.66 555.609H629.32C631.529 555.609 633.32 553.818 633.32 551.609V286.906ZM512.797 392.364C512.797 390.155 511.006 388.364 508.797 388.364H446.183C443.974 388.364 442.183 390.155 442.183 392.364V446.151C442.183 448.36 443.974 450.151 446.183 450.151H508.797C511.006 450.151 512.797 448.36 512.797 446.151V392.364Z" fill="currentColor"/>
<path id="r" fillRule="evenodd" clipRule="evenodd" d="M954.176 419.823C954.698 419.13 954.98 418.286 954.98 417.418V286.906C954.98 284.697 953.211 282.906 951.002 282.906C941.941 282.906 912.241 282.906 814.886 282.906H647.32C645.111 282.906 643.32 284.697 643.32 286.906V551.609C643.32 553.818 645.111 555.609 647.32 555.609L764.814 555.609H795.979L946.824 555.609C950.149 555.609 952.022 551.789 949.987 549.16L904.616 490.557C903.512 489.132 903.498 487.144 904.583 485.703L954.176 419.823ZM801.357 448.286C800.599 449.269 799.441 449.845 798.201 449.845C792.999 449.845 778.498 449.845 767.904 449.845C765.695 449.845 763.906 448.054 763.906 445.845V392.114C763.906 389.905 765.683 388.114 767.892 388.114C782.63 388.114 815.407 388.114 830.145 388.114C832.355 388.114 834.131 389.905 834.131 392.114V404.381C834.131 405.264 833.839 406.122 833.3 406.822L801.357 448.286Z" fill="currentColor"/>
<path id="g" d="M1089.22 388.583H1155.74H1194.58C1195.83 388.583 1197.01 387.996 1197.76 386.998L1271.78 289.321C1273.77 286.687 1271.95 282.905 1268.64 282.905H1118.03H968.936C966.726 282.905 964.98 284.663 964.98 286.872V421.984V551.636C964.98 553.846 966.721 555.609 968.931 555.609C991.958 555.603 1109.97 555.579 1171.89 555.607C1173.12 555.607 1174.23 555.047 1174.99 554.085L1190.34 534.638C1191.96 532.586 1195.08 532.614 1196.66 534.694L1211.38 554.03C1212.14 555.024 1213.31 555.608 1214.56 555.608H1272.64C1274.85 555.608 1276.64 553.817 1276.64 551.608V423.305C1276.64 421.096 1274.85 419.305 1272.64 419.305H1147.07C1145.86 419.305 1144.71 419.855 1143.95 420.801L1121.9 448.279C1121.14 449.225 1119.99 449.776 1118.78 449.776H1089.22C1087.01 449.776 1085.22 447.985 1085.22 445.776V392.583C1085.22 390.374 1087.01 388.583 1089.22 388.583Z" fill="currentColor"/>
<path id="e_2" d="M1594.3 282.906H1290.64C1288.43 282.906 1286.64 284.697 1286.64 286.906V551.609C1286.64 553.818 1288.43 555.609 1290.64 555.609L1594.3 555.609C1596.51 555.609 1598.3 553.818 1598.3 551.609V470.868C1598.3 468.659 1596.51 466.868 1594.3 466.868L1460.36 466.868C1458.15 466.868 1456.36 465.078 1456.36 462.868V456.16C1456.36 453.95 1458.15 452.16 1460.36 452.16L1533.53 452.159C1535.74 452.159 1537.53 450.369 1537.53 448.159V387.46C1537.53 385.25 1535.74 383.46 1533.53 383.46L1460.36 383.46C1458.15 383.46 1456.36 381.669 1456.36 379.46V373.597C1456.36 371.388 1458.15 369.597 1460.36 369.597L1594.3 369.597C1596.51 369.597 1598.3 367.807 1598.3 365.597V286.906C1598.3 284.697 1596.51 282.906 1594.3 282.906Z" fill="currentColor"/>
</g>
</g>
</svg>
