<svg width="1920" height="556" viewBox="0 0 1920 556" fill="none" xmlns="http://www.w3.org/2000/svg">
<g id="neon-forge">
<g id="neon">
<path id="n" d="M162.881 242.458C160.554 239.427 155.708 241.073 155.708 244.894L155.708 268.703C155.708 270.912 153.917 272.703 151.708 272.703L4.00017 272.702C1.79096 272.702 7.7126e-05 270.911 0.000172263 268.702L0.0115714 3.99982C0.0116665 1.79075 1.8025 0 4.01157 0H124.182C125.423 0 126.593 0.575441 127.35 1.5578L148.889 29.4975C151.22 32.5207 156.057 30.8726 156.057 27.0553V4C156.057 1.79086 157.848 0 160.057 0H307.66C309.869 0 311.66 1.79086 311.66 4V268.702C311.66 270.912 309.869 272.702 307.66 272.702L188.072 272.703C186.829 272.703 185.656 272.124 184.899 271.138L162.881 242.458Z" fill="white"/>
<path id="e" d="M629.32 0H325.66C323.451 0 321.66 1.79086 321.66 4V268.702C321.66 270.912 323.451 272.702 325.66 272.702H629.32C631.529 272.702 633.32 270.912 633.32 268.702V188.159C633.32 185.952 631.533 184.162 629.326 184.159L494.179 183.968C491.972 183.965 490.184 182.175 490.184 179.968V173.253C490.184 171.044 491.975 169.253 494.184 169.253L566.782 169.253C568.991 169.253 570.782 167.462 570.782 165.253V104.553C570.782 102.344 568.991 100.553 566.782 100.553L494.184 100.553C491.975 100.553 490.184 98.7626 490.184 96.5534V90.6911C490.184 88.482 491.975 86.6911 494.184 86.6911L629.32 86.6911C631.529 86.6911 633.32 84.9003 633.32 82.6911V4C633.32 1.79086 631.529 0 629.32 0Z" fill="white"/>
<path id="o" fill-rule="evenodd" clip-rule="evenodd" d="M954.98 4C954.98 1.79086 953.189 0 950.98 0H647.32C645.111 0 643.32 1.79086 643.32 4V268.703C643.32 270.912 645.111 272.703 647.32 272.703H950.98C953.189 272.703 954.98 270.912 954.98 268.703V4ZM834.456 109.458C834.456 107.249 832.666 105.458 830.456 105.458H767.843C765.634 105.458 763.843 107.249 763.843 109.458V163.245C763.843 165.454 765.634 167.245 767.843 167.245H830.456C832.666 167.245 834.456 165.454 834.456 163.245V109.458Z" fill="white"/>
<path id="n_2" d="M1127.86 242.458C1125.53 239.427 1120.69 241.073 1120.69 244.894L1120.69 268.703C1120.69 270.912 1118.9 272.703 1116.69 272.703L968.98 272.702C966.771 272.702 964.98 270.911 964.98 268.702L964.992 3.99982C964.992 1.79075 966.782 0 968.992 0H1089.16C1090.4 0 1091.57 0.575441 1092.33 1.5578L1113.87 29.4975C1116.2 32.5207 1121.04 30.8726 1121.04 27.0553V4C1121.04 1.79086 1122.83 0 1125.04 0H1272.64C1274.85 0 1276.64 1.79086 1276.64 4V268.702C1276.64 270.912 1274.85 272.702 1272.64 272.702L1153.05 272.703C1151.81 272.703 1150.64 272.124 1149.88 271.138L1127.86 242.458Z" fill="white"/>
</g>
<g id="forge">
<path id="f" d="M307.66 282.703L34.8905 282.703H4C1.79086 282.703 0 284.494 0 286.703V403.695C0 405.904 1.79086 407.695 4 407.695L45.4766 407.695C47.6857 407.695 49.4766 409.486 49.4766 411.695V551.406C49.4766 553.615 51.2674 555.406 53.4766 555.406H149.205C150.457 555.406 151.637 554.819 152.393 553.821L243.621 433.427C245.617 430.793 243.738 427.012 240.433 427.012H155.192C152.983 427.012 151.192 425.221 151.192 423.012V411.695C151.192 409.486 152.983 407.695 155.192 407.695H307.66C309.869 407.695 311.66 405.904 311.66 403.695V286.703C311.66 284.494 309.869 282.703 307.66 282.703Z" fill="white"/>
<path id="o_2" fill-rule="evenodd" clip-rule="evenodd" d="M633.32 286.703C633.32 284.494 631.529 282.703 629.32 282.703H325.66C323.451 282.703 321.66 284.494 321.66 286.703V551.406C321.66 553.615 323.451 555.406 325.66 555.406H629.32C631.529 555.406 633.32 553.615 633.32 551.406V286.703ZM512.797 392.161C512.797 389.952 511.006 388.161 508.797 388.161H446.183C443.974 388.161 442.183 389.952 442.183 392.161V445.948C442.183 448.157 443.974 449.948 446.183 449.948H508.797C511.006 449.948 512.797 448.157 512.797 445.948V392.161Z" fill="white"/>
<path id="r" fill-rule="evenodd" clip-rule="evenodd" d="M954.176 419.62C954.698 418.927 954.98 418.082 954.98 417.214V286.703C954.98 284.494 953.211 282.703 951.002 282.703C941.941 282.703 912.241 282.703 814.886 282.703H647.32C645.111 282.703 643.32 284.494 643.32 286.703V551.406C643.32 553.615 645.111 555.406 647.32 555.406L764.814 555.406H795.979L946.824 555.406C950.149 555.406 952.022 551.586 949.987 548.957L904.616 490.354C903.512 488.929 903.498 486.941 904.583 485.5L954.176 419.62ZM801.357 448.083C800.599 449.066 799.441 449.642 798.201 449.642C792.999 449.642 778.498 449.642 767.904 449.642C765.695 449.642 763.906 447.851 763.906 445.642V391.911C763.906 389.702 765.683 387.911 767.892 387.911C782.63 387.911 815.407 387.911 830.145 387.911C832.355 387.911 834.131 389.702 834.131 391.911V404.178C834.131 405.061 833.839 405.919 833.3 406.619L801.357 448.083Z" fill="white"/>
<path id="g" d="M1089.22 388.38H1155.74H1194.58C1195.83 388.38 1197.01 387.793 1197.76 386.795L1271.78 289.118C1273.77 286.483 1271.95 282.702 1268.64 282.702H1118.03H968.936C966.726 282.702 964.98 284.459 964.98 286.669V421.78V551.433C964.98 553.642 966.721 555.406 968.931 555.406C991.958 555.4 1109.97 555.375 1171.89 555.404C1173.12 555.404 1174.23 554.844 1174.99 553.882L1190.34 534.435C1191.96 532.383 1195.08 532.411 1196.66 534.491L1211.38 553.827C1212.14 554.821 1213.31 555.405 1214.56 555.405H1272.64C1274.85 555.405 1276.64 553.614 1276.64 551.405V423.102C1276.64 420.892 1274.85 419.102 1272.64 419.102H1147.07C1145.86 419.102 1144.71 419.652 1143.95 420.598L1121.9 448.076C1121.14 449.022 1119.99 449.572 1118.78 449.572H1089.22C1087.01 449.572 1085.22 447.782 1085.22 445.572V392.38C1085.22 390.17 1087.01 388.38 1089.22 388.38Z" fill="white"/>
<path id="e_2" d="M1594.3 282.703H1290.64C1288.43 282.703 1286.64 284.494 1286.64 286.703V551.406C1286.64 553.615 1288.43 555.406 1290.64 555.406H1594.3C1596.51 555.406 1598.3 553.615 1598.3 551.406V470.862C1598.3 468.655 1596.51 466.865 1594.31 466.862L1459.16 466.671C1456.95 466.668 1455.16 464.878 1455.16 462.671V455.956C1455.16 453.747 1456.96 451.956 1459.16 451.956L1531.76 451.956C1533.97 451.956 1535.76 450.165 1535.76 447.956V387.256C1535.76 385.047 1533.97 383.256 1531.76 383.256L1459.16 383.257C1456.96 383.257 1455.16 381.466 1455.16 379.257V373.394C1455.16 371.185 1456.96 369.394 1459.16 369.394L1594.3 369.394C1596.51 369.394 1598.3 367.603 1598.3 365.394V286.703C1598.3 284.494 1596.51 282.703 1594.3 282.703Z" fill="white"/>
</g>
</g>
</svg>
